<?xml version="1.0" standalone="no"?>
<!DOCTYPE svg PUBLIC "-//W3C//DTD SVG 20010904//EN"
 "http://www.w3.org/TR/2001/REC-SVG-20010904/DTD/svg10.dtd">
<svg version="1.0" xmlns="http://www.w3.org/2000/svg"
 width="922.000000pt" height="298.000000pt" viewBox="0 0 922.000000 298.000000"
 preserveAspectRatio="xMidYMid meet">

<g transform="translate(0.000000,298.000000) scale(0.100000,-0.100000)"
fill="#000000" stroke="none">
<path d="M1665 2593 c-11 -2 -30 -6 -41 -8 -12 -3 -24 -14 -27 -26 -3 -11 -15
-23 -26 -26 -12 -3 -22 -8 -22 -12 -1 -3 -4 -17 -7 -31 -3 -14 -7 -398 -9
-855 -4 -850 -2 -905 33 -905 11 0 14 -6 10 -16 -3 -8 -2 -12 3 -9 6 3 13 -1
18 -8 19 -32 52 -37 246 -37 195 0 250 8 261 36 3 9 11 12 18 8 8 -5 9 -2 5 9
-4 10 -1 17 6 17 35 0 37 52 37 903 0 524 -4 845 -10 862 -12 33 -36 57 -80
84 -32 19 -48 21 -215 20 -99 -1 -189 -3 -200 -6z"/>
<path d="M5047 1996 c-101 -28 -173 -105 -202 -217 -18 -67 -20 -360 -4 -443
27 -130 112 -215 238 -236 74 -12 137 -5 239 27 57 17 58 19 32 88 -11 30 -12
30 -85 5 -125 -43 -237 -16 -285 70 -24 44 -25 49 -25 260 0 211 1 216 25 260
48 86 150 111 282 70 34 -11 66 -20 69 -20 7 0 43 90 38 95 -2 2 -32 13 -67
24 -81 28 -192 35 -255 17z"/>
<path d="M4325 1988 c-3 -7 -70 -208 -149 -446 l-145 -433 56 3 56 3 32 95 32
95 169 3 170 2 32 -100 33 -100 59 0 58 0 -147 443 -148 442 -51 3 c-36 2 -54
-1 -57 -10z m159 -490 l24 -78 -132 0 -133 0 66 210 66 210 43 -132 c23 -73
53 -168 66 -210z"/>
<path d="M5847 1994 c-4 -4 -7 -205 -7 -446 l0 -438 60 0 60 0 0 185 0 185
160 0 160 0 0 55 0 55 -160 0 -160 0 0 150 0 150 181 0 180 0 -3 53 -3 52
-231 3 c-127 1 -233 -1 -237 -4z"/>
<path d="M2610 1779 c-14 -6 -36 -20 -48 -32 -53 -49 -52 -43 -52 -527 0 -500
-2 -485 67 -537 l36 -28 201 -3 c193 -3 203 -2 245 20 25 13 54 36 65 51 20
28 21 42 24 491 l3 462 -23 34 c-50 73 -56 75 -286 77 -124 1 -217 -2 -232 -8z"/>
<path d="M6633 1760 c-56 -12 -80 -25 -126 -68 -58 -56 -77 -120 -77 -262 0
-142 19 -206 77 -262 48 -45 70 -56 138 -69 118 -22 235 26 286 117 56 98 61
313 10 411 -25 49 -76 98 -123 117 -47 20 -132 27 -185 16z m155 -117 c15 -11
37 -37 50 -59 21 -36 22 -49 20 -166 -3 -110 -6 -130 -24 -154 -39 -53 -71
-69 -134 -69 -71 0 -105 21 -137 85 -20 37 -23 60 -23 147 0 138 24 197 95
230 40 18 120 11 153 -14z"/>
<path d="M7465 1763 c-57 -13 -90 -28 -135 -64 -27 -21 -52 -39 -55 -39 -3 0
-5 20 -5 45 l0 45 -50 0 -50 0 0 -320 0 -320 55 0 55 0 0 226 c0 222 0 226 23
245 38 33 111 67 160 74 l47 7 0 54 c0 55 -2 57 -45 47z"/>
<path d="M7810 1761 c-71 -15 -130 -61 -164 -129 -28 -55 -41 -189 -28 -287
20 -150 74 -217 198 -245 54 -12 158 0 223 26 l39 15 -15 45 c-12 35 -19 44
-32 39 -98 -38 -194 -41 -240 -8 -50 37 -65 86 -65 213 0 128 15 176 67 214
35 26 128 26 196 2 24 -9 45 -16 46 -16 2 0 10 20 18 44 l15 45 -37 14 c-39
16 -144 38 -170 36 -9 -1 -32 -4 -51 -8z"/>
<path d="M8398 1761 c-69 -14 -130 -61 -163 -126 -27 -53 -30 -69 -34 -174 -4
-134 8 -200 48 -263 62 -98 214 -130 379 -79 79 24 77 20 51 89 -10 26 -6 26
-60 6 -26 -10 -78 -17 -129 -18 -73 -1 -89 2 -116 21 -36 26 -59 69 -68 131
l-6 42 194 0 c225 0 206 -12 206 125 0 90 -19 143 -66 187 -54 50 -155 76
-236 59z m140 -111 c37 -23 62 -72 62 -125 l0 -35 -149 0 -148 0 8 47 c5 26
16 57 25 70 40 61 138 82 202 43z"/>
</g>
</svg>
