<svg width="256" height="50" viewBox="0 0 817 197" fill="none" xmlns="http://www.w3.org/2000/svg">
<path d="M156.004 193.643C152.104 194.619 148.404 195.795 144.672 195.905C135.025 196.187 125.365 196.041 115.71 195.986C105.174 195.925 98.3738 189.125 98.2982 178.356C98.1802 161.544 98.2386 144.731 98.127 127.458C98.1119 121.34 98.2574 115.684 98.2613 110.028C98.2819 79.7136 98.2453 49.399 98.2752 19.0845C98.2875 6.65685 104.705 0.208275 116.992 0.171055C126.652 0.141789 136.313 0.112771 145.974 0.180825C156.818 0.257218 163.662 6.74597 163.681 17.5277C163.776 71.161 163.727 124.795 163.72 178.428C163.719 184.658 161.502 189.794 156.004 193.643Z" fill="#0398F8"/>
<path d="M65.9695 79.5379C65.9827 106.304 65.9073 132.608 65.8405 158.912C65.8235 165.573 65.9281 172.235 65.8098 178.894C65.6244 189.327 58.8929 195.925 48.4012 195.992C38.2439 196.058 28.0855 196.053 17.9282 195.994C7.31477 195.932 0.525831 189.231 0.44409 178.431C0.313013 161.114 0.406274 143.795 0.405946 126.477C0.405591 107.494 0.402632 88.5107 0.408354 69.5275C0.412752 54.9374 6.33933 49.0851 21.0915 49.0755C26.753 49.0718 32.4145 49.0551 38.539 48.9642C42.3132 48.9487 45.6247 49.0076 48.9359 49.079C58.6868 49.2891 65.468 55.8893 65.8067 65.6491C65.9619 70.1204 65.866 74.6004 65.9695 79.5379Z" fill="#FFBE05"/>
<path d="M196.204 145C196.206 129.683 196.167 114.866 196.223 100.049C196.267 88.3245 202.739 81.9247 214.532 81.8754C224.521 81.8336 234.511 81.8087 244.499 81.8836C254.449 81.9582 261.362 88.3226 261.443 98.3145C261.661 125.283 261.649 152.256 261.457 179.225C261.384 189.453 254.449 195.892 244.235 195.956C233.913 196.022 223.591 196.031 213.269 195.953C203.289 195.876 196.371 189.039 196.241 178.963C196.097 167.81 196.205 156.654 196.204 145Z" fill="#FF2828"/>
<path d="M357.39 150.185C354.534 150.185 352.086 150.185 349.107 150.185C355.981 129.433 362.638 109.308 369.317 89.1901C372.034 81.0037 375.052 72.9056 377.43 64.6227C378.534 60.775 381.052 61.356 383.581 61.5205C386.098 61.6843 388.946 60.2323 390.332 64.4843C399.581 92.8507 409.138 121.117 418.732 149.826C414.892 149.826 411.311 149.826 407.012 149.826C405.367 144.695 403.424 139.102 401.813 133.414C400.998 130.534 399.602 129.562 396.566 129.64C387.916 129.864 379.254 129.816 370.601 129.662C367.848 129.613 366.436 130.288 365.695 133.186C364.464 137.997 362.811 142.718 361.016 147.354C360.559 148.536 358.903 149.254 357.39 150.185ZM394.462 119.29C397.625 119.47 396.433 117.493 395.982 116.058C393.751 108.952 391.434 101.874 389.189 94.7726C387.401 89.1185 385.672 83.4457 383.623 76.8348C378.978 91.5757 374.688 105.187 370.243 119.295C378.558 119.295 386.014 119.295 394.462 119.29Z" fill="#070707"/>
<path d="M530.267 129C530.267 106.379 530.267 84.2591 530.267 61.7973C546.137 61.7973 561.703 61.7973 577.613 61.7973C577.613 64.9943 577.613 68.2295 577.613 72.042C565.939 72.042 554.092 72.042 542.059 72.042C542.059 82.2264 542.059 91.8451 542.059 101.877C552.433 101.877 562.835 101.877 573.628 101.877C573.628 105.654 573.628 109.035 573.628 112.95C563.3 112.95 552.754 112.95 541.9 112.95C541.9 125.565 541.9 137.662 541.9 149.975C537.965 149.975 534.352 149.975 530.267 149.975C530.267 143.04 530.267 136.27 530.267 129Z" fill="#0B0B0B"/>
<path d="M624.984 85.3C632.849 88.1481 638.344 93.0443 641.5 100.851C642.171 110.175 643.394 119.318 642.833 128.35C641.974 142.178 632.191 150.637 617.607 151.662C603.959 152.621 592.563 145.371 590.203 132.286C588.611 123.458 588.402 113.942 589.843 105.103C592.208 90.5898 604.006 82.9063 618.662 84.4588C620.646 84.6689 622.616 85.0131 624.984 85.3ZM632.29 119.461C632.209 116.133 632.323 112.785 632.008 109.479C631.143 100.392 625.509 94.6687 617.179 94.1605C608.64 93.6396 601.849 98.3482 600.563 107.287C599.557 114.281 599.596 121.64 600.551 128.648C601.8 137.805 608.124 142.316 616.943 141.94C625.432 141.578 630.943 136.112 631.978 126.916C632.22 124.771 632.193 122.595 632.29 119.461Z" fill="#050506"/>
<path d="M478.822 75.0599C472.979 73.6761 467.589 71.4837 462.077 71.1125C449.587 70.2715 442.187 76.3533 441.291 88.7839C440.467 100.214 440.375 111.812 441.316 123.224C442.457 137.069 452.742 143.556 467.11 140.572C471.155 139.732 475.067 138.246 479.691 136.862C480.818 139.615 482.027 142.569 483.214 145.47C461.667 160.919 433.352 149.829 429.708 123.999C428.05 112.245 428.124 99.9196 429.589 88.1239C432.327 66.0881 447.958 56.3585 470.396 61.346C474.571 62.2739 478.598 63.8631 483.471 65.3907C481.92 68.9246 480.57 72.0013 478.822 75.0599Z" fill="#060707"/>
<path d="M662.813 119.462C662.729 108.054 662.729 97.1078 662.729 85.9892C666.346 85.9892 669.473 85.9892 673.006 85.9892C673.006 88.951 673.006 91.8463 673.006 96.0686C680.145 89.4164 687.063 84.5003 696.56 84.4459C696.56 87.8131 696.56 91.1929 696.56 94.8953C689.316 95.3343 682.353 97.3333 676.84 102.49C675.258 103.969 673.937 106.549 673.86 108.674C673.539 117.468 673.741 126.281 673.866 135.544C673.981 140.584 673.981 145.168 673.981 149.964C670.049 149.964 666.781 149.964 662.898 149.964C662.898 139.946 662.898 129.935 662.813 119.462Z" fill="#060607"/>
<path d="M791.107 84.287C810.469 84.6847 821.064 98.3458 814.405 121.858C801.907 121.858 789.297 121.858 776.716 121.858C775.962 135.902 782.483 142.806 795.893 141.793C801.448 141.374 806.905 139.66 812.948 138.424C813.791 140.57 814.857 143.283 816.166 146.615C803.637 151.597 791.262 154.29 778.553 148.315C772.306 145.379 768.023 139.779 767.381 133.254C766.399 123.268 765.77 112.884 767.452 103.092C769.509 91.1236 778.436 85.0323 791.107 84.287ZM789.806 93.9461C780.815 95.5842 776.677 101.328 776.817 112.224C786.369 112.224 795.924 112.224 805.43 112.224C807.403 100.267 802.259 94.005 789.806 93.9461Z" fill="#070707"/>
<path d="M719.462 105.066C719.168 113.08 718.429 120.761 719.07 128.325C719.904 138.157 726.003 142.778 735.833 141.666C740.732 141.112 745.52 139.584 750.677 138.424C751.571 140.866 752.581 143.626 753.681 146.633C744.733 150.91 735.59 152.887 725.966 150.862C716.943 148.963 711.446 142.863 709.117 134.248C706.384 124.139 706.343 113.744 708.701 103.582C711.953 89.5647 722.147 82.7061 736.45 84.6872C741.946 85.4485 747.308 87.1802 753.019 88.5381C751.694 92.2602 750.713 95.0145 749.645 98.0166C741.761 95.5484 733.874 91.7918 726.036 96.2593C723.217 97.8663 721.727 101.805 719.462 105.066Z" fill="#060606"/>
</svg>
